<?xml version="1.0" encoding="UTF-8"?>
<svg xmlns="http://www.w3.org/2000/svg" viewBox="0 0 64 64" role="img" aria-labelledby="title desc" version="1.2" baseProfile="tiny-ps">
  <title id="title">GuestSquad</title>
  <desc id="desc">GuestSquad G favicon.</desc>
  <g transform="translate(2 2) scale(0.2307692308)">
    <path fill="#0F172A" d="M128 24c-54.1 0-98 43.9-98 98 0 51 39 92.8 88.8 97.3-3.4 8.4-9.4 16.2-18.3 23.3h32.4c11.7-9.5 19-21 21.7-34.3V171h-26.7v23.7c-34.5 0-62.7-28.2-62.7-62.7S93.4 69.3 128 69.3h54.1c19.7 0 35.7-16 35.7-35.7V24H128Z"/>
    <path fill="#C89B3C" d="M163.4 98.6c-18.2 0-33 14.8-33 33h57.2v25.3c0 20.9-17 37.9-37.9 37.9h-20.4v23.7h20.4c34 0 61.6-27.6 61.6-61.6V98.6h-47.9Z"/>
  </g>
</svg>
