<svg xmlns="http://www.w3.org/2000/svg" viewBox="0 0 920 280" role="img" aria-labelledby="title desc">
  <title id="title">GuestSquad monochrome logo</title>
  <desc id="desc">Monochrome GuestSquad logo with tagline.</desc>
  <g transform="translate(0 6)">
    <path fill="#0F172A" d="M128 24c-54.1 0-98 43.9-98 98 0 51 39 92.8 88.8 97.3-3.4 8.4-9.4 16.2-18.3 23.3h32.4c11.7-9.5 19-21 21.7-34.3V171h-24.9c-18.2 0-33-14.8-33-33h57.2v18.9c0 20.9-17 37.9-37.9 37.9h-20.4v23.7h20.4c34 0 61.6-27.6 61.6-61.6v-42.6h-81.9c7.8-26 31.9-45 60.4-45h54.1c19.7 0 35.7-16 35.7-35.7V24H128Z"/>
  </g>
  <text x="250" y="142" fill="#0F172A" font-family="'Avenir Next', 'Montserrat', 'Poppins', sans-serif" font-size="88" font-weight="700" letter-spacing="-3">GuestSquad</text>
  <text x="271" y="208" fill="#0F172A" font-family="'Avenir Next', 'Montserrat', 'Poppins', sans-serif" font-size="40" font-weight="500" letter-spacing="-0.9">Your Dedicated Guest Team</text>
</svg>
