<svg xmlns="http://www.w3.org/2000/svg" viewBox="0 0 256 256" role="img" aria-labelledby="title desc">
  <title id="title">GuestSquad favicon dark</title>
  <desc id="desc">GuestSquad app icon on a navy rounded square.</desc>
  <rect width="256" height="256" rx="38" fill="#0F172A"/>
  <path fill="#FFFFFF" d="M128 52c-41.4 0-75 33.6-75 75 0 39 29.8 70.9 67.9 74.3-2.6 6.4-7.2 12.4-14 17.8h24.8c8.9-7.3 14.6-16 16.6-26.2v-28.7h-20.4v18.1c-26.4 0-48-21.6-48-48s21.6-48 48-48h41.4c15.1 0 27.3-12.2 27.3-27.3V52H128Z"/>
  <path fill="#C89B3C" d="M155.1 108.1c-14 0-25.2 11.3-25.2 25.2h43.8v19.4c0 16-13 29-29 29H129v18.1h15.7c26 0 47.1-21.1 47.1-47.1v-44.6h-36.7Z"/>
</svg>
